<svg width="505" height="549" viewBox="0 0 505 549" fill="none" xmlns="http://www.w3.org/2000/svg">
<path opacity="0.38" d="M245.248 2.53932C385.881 10.1259 391.922 161.296 376.749 220.163C361.576 279.17 476.499 292.657 490.127 389.457C503.755 486.257 414.542 527 351.039 528.545C287.536 530.091 237.661 492.298 227.124 445.373C216.587 398.449 186.381 375.829 133.415 366.838C80.4493 357.706 -14.6644 286.757 1.91376 194.453C1.91376 194.453 5.84756 96.3886 97.8705 31.1999C159.828 -12.6339 245.248 2.53932 245.248 2.53932Z" fill="#E2E7FF"/>
<path d="M154.349 234.212C154.349 234.212 150.556 185.321 164.886 152.867C170.646 145.14 174.44 148.09 174.44 148.09C174.44 148.09 176.406 168.181 171.63 187.288C166.853 206.395 163.903 243.766 163.903 243.766L154.349 234.212Z" fill="#61A27D"/>
<path d="M151.399 230.278C151.399 230.278 150.415 207.238 126.532 187.147C102.648 167.197 97.7305 167.197 97.7305 167.197C97.7305 167.197 116.838 166.214 130.325 174.924C143.672 183.494 148.448 207.519 149.432 211.312C150.415 215.105 156.176 230.419 156.176 230.419H151.399V230.278Z" fill="#578B71"/>
<path d="M166.995 233.791C166.995 233.791 171.49 211.171 198.184 195.015C224.878 178.858 229.654 179.56 229.654 179.56C229.654 179.56 210.828 175.627 196.358 182.089C181.746 188.552 173.317 211.452 171.771 215.105C170.226 218.758 162.218 232.948 162.218 232.948L166.995 233.791Z" fill="#578B71"/>
<path d="M156.176 230.278C156.176 230.278 131.308 147.95 109.251 128.842C110.234 126.033 136.085 134.603 143.672 155.677C151.399 176.751 153.225 208.361 156.176 216.932C158.985 225.502 162.919 233.229 162.919 233.229" fill="#7CC97D"/>
<path d="M154.35 234.212C154.35 234.212 163.903 189.254 188.77 173.941C190.737 179.701 162.92 226.626 165.73 247.699C168.68 268.633 154.35 234.212 154.35 234.212Z" fill="#7CC97D"/>
<path d="M140.58 284.93H177.389C179.637 269.616 181.604 255.708 181.885 250.509C182.588 239.691 178.935 230.419 177.108 226.626H140.721C138.894 230.419 135.242 239.691 135.944 250.509C136.506 255.708 138.332 269.476 140.58 284.93Z" fill="#A9A7E7"/>
<path d="M475.936 193.188H408.359V284.509H475.936V193.188Z" fill="#24ADB2"/>
<path d="M469.053 193.188H401.476V284.509H469.053V193.188Z" fill="#26C6DA"/>
<path d="M452.193 183.916H384.616V284.509H452.193V183.916Z" fill="#E1543C"/>
<path d="M445.168 183.916H367.757V284.509H445.168V183.916Z" fill="#FF634D"/>
<path d="M445.168 183.916H431.962V284.509H445.168V183.916Z" fill="#EB594D"/>
<path d="M58.5318 209.064C58.5318 209.064 47.9948 214.403 43.3585 229.576C38.7222 244.749 63.8705 285.914 63.8705 283.806C63.8705 281.839 89.0187 270.6 89.0187 270.6L76.3744 224.237L58.5318 209.064Z" fill="#202F7C"/>
<path d="M323.08 289.426L309.171 252.476H274.188L288.097 289.426" fill="#4F57A0"/>
<path d="M196.215 259.782H395.012L398.525 241.096H199.727" fill="#E2E7FF"/>
<path d="M217.289 146.826L199.728 241.237H398.525L415.665 149.074C416.368 145.421 413.558 142.049 409.765 142.049H223.19C220.24 141.908 217.851 143.875 217.289 146.826Z" fill="#243FA7"/>
<path d="M315.212 276.079L367.897 236.882L316.196 233.931L267.585 271.584L315.212 276.079Z" fill="white"/>
<path d="M300.461 263.435L313.667 256.129C313.667 256.129 326.452 250.791 326.874 250.791C327.295 250.791 328.419 252.055 327.014 254.584C325.609 257.113 322.097 257.815 322.097 257.815L319.709 264.418L331.932 262.732L334.741 262.03C334.741 262.03 332.774 266.947 331.932 268.212C331.089 269.336 326.452 272.286 326.452 272.286C326.452 272.286 317.742 279.592 314.51 280.435C311.279 281.278 300.461 281.699 300.461 281.699L293.577 281.558L287.114 282.823C287.114 282.823 283.742 276.641 284.304 268.071L300.461 263.435Z" fill="#FF8D68"/>
<path d="M378.998 293.781L417.353 544.14H426.625L401.477 292.517L378.998 293.781Z" fill="#E2E7FF"/>
<path d="M457.112 293.781L495.467 544.14H504.739L479.591 292.517L457.112 293.781Z" fill="#E2E7FF"/>
<path d="M231.901 293.781L193.546 544.14H184.273L209.422 292.517L231.901 293.781Z" fill="#C2D3EB"/>
<path d="M153.787 293.781L115.433 544.14H106.16L131.308 292.517L153.787 293.781Z" fill="#C2D3EB"/>
<path d="M484.929 291.112H139.316V303.054H484.929V291.112Z" fill="#A9A7E7"/>
<path d="M491.531 296.451H149.852C146.199 296.451 143.249 293.5 143.249 289.847C143.249 286.195 146.199 283.244 149.852 283.244H491.531C495.184 283.244 498.134 286.195 498.134 289.847C498.134 293.5 495.184 296.451 491.531 296.451Z" fill="#FFC757"/>
<path d="M161.232 518.992C161.232 518.992 163.339 513.653 172.471 514.637C181.603 515.62 182.727 517.306 183.992 521.661C185.256 526.157 188.628 530.793 190.735 531.777C192.843 532.76 200.71 537.537 207.033 538.239C213.355 538.942 214.198 542.735 212.933 544.562C211.669 546.388 188.066 548.917 182.868 548.495C182.868 548.495 165.166 549.057 160.951 547.793C156.736 546.669 161.091 520.678 161.232 518.992Z" fill="#201360"/>
<path d="M163.761 480.778L161.092 522.223C161.092 522.223 167.554 524.331 172.472 527.983C179.777 533.322 185.678 526.859 185.678 526.859L187.364 500.728L163.761 480.778Z" fill="#FF8D68"/>
<path d="M216.444 407.721L189.61 522.926C189.61 522.926 175.701 524.892 158.842 517.025C158.842 517.025 173.734 408.705 174.718 401.821C175.701 394.796 214.477 401.68 216.444 407.721Z" fill="#202F7C"/>
<path d="M107.702 109.595C107.702 109.595 118.661 111.702 125.966 127.859C133.272 144.016 131.446 179.701 127.652 184.056C123.859 188.552 111.355 187.709 93.6529 183.213C75.1079 178.437 67.6617 159.892 63.5874 147.669C55.8603 124.206 74.9674 98.2151 107.702 109.595Z" fill="#FF8D68"/>
<path d="M77.0752 204.568L83.3974 174.222C83.3974 174.222 99.6946 168.321 110.794 178.718L114.587 183.354L115.851 202.742C115.992 202.601 98.8516 207.238 77.0752 204.568Z" fill="#FF8D68"/>
<path d="M76.7934 391.002C76.7934 391.002 112.338 401.399 154.346 399.994C196.493 398.589 201.973 386.647 203.378 375.267C204.642 363.887 171.907 357.003 157.717 353.21C143.528 349.417 94.7765 335.508 81.5701 349.698C68.3638 363.887 65.273 381.308 76.7934 391.002Z" fill="#201360"/>
<path d="M259.575 518.992C259.575 518.992 261.682 513.653 270.814 514.637C279.946 515.62 281.07 517.306 282.335 521.661C283.599 526.157 286.971 530.793 289.078 531.777C291.186 532.76 299.053 537.537 305.375 538.239C311.698 538.942 312.541 542.735 311.276 544.562C310.012 546.388 286.409 548.917 281.211 548.495C281.211 548.495 263.508 549.057 259.294 547.793C255.079 546.669 259.294 520.678 259.575 518.992Z" fill="#201360"/>
<path d="M249.179 483.868L259.154 524.19C259.154 524.19 267.162 522.223 271.798 526.157C276.434 530.091 285.004 527.421 285.004 527.421L277.699 495.67L249.179 483.868Z" fill="#FF8D68"/>
<path d="M167.131 348.714C169.098 348.714 236.675 371.193 249.882 381.168C263.088 391.705 284.303 509.719 285.567 512.388C286.831 515.058 266.319 522.363 253.113 520.397C252.411 517.727 221.362 418.258 221.362 411.655C221.362 411.655 168.396 408.986 145.917 405.052C123.438 401.118 108.124 400.416 98.8518 375.97C89.5793 351.524 143.81 349.417 143.81 349.417L167.131 348.714Z" fill="#202F7C"/>
<path d="M282.617 261.749C282.617 261.749 295.543 261.468 296.526 262.732C297.509 263.997 302.146 275.939 297.79 280.997C294.138 283.666 294.138 283.666 294.138 283.666H282.898L282.617 261.749Z" fill="#E2E7FF"/>
<path d="M74.8281 200.072L78.3405 191.081C78.3405 191.081 99.1334 184.618 117.117 192.626C121.612 197.122 124.001 204.006 124.001 204.006L74.8281 200.072Z" fill="#E2E7FF"/>
<path d="M70.332 201.197C70.332 201.197 73.0014 196.56 77.6376 195.858C82.2739 195.155 103.488 192.486 117.397 196.56C122.736 198.527 125.405 201.197 125.405 201.197C125.405 201.197 145.215 207.8 151.958 211.734C158.562 215.667 160.529 246.154 161.933 256.129C163.198 266.104 159.264 276.641 159.264 276.641C159.264 276.641 175.14 341.549 175.14 350.822C175.14 360.094 169.801 370.631 151.256 377.375C132.711 383.978 82.4144 381.309 65.1338 370.772C59.795 360.235 51.9274 234.353 50.5225 222.411C49.258 210.329 70.332 201.197 70.332 201.197Z" fill="#202F7C"/>
<path d="M140.86 209.064C140.86 209.064 145.777 206.114 157.719 213.981C169.661 221.99 202.396 251.774 206.33 253.741C210.263 255.708 286.832 259.642 286.832 259.642C286.832 259.642 297.791 273.551 285.849 284.509C285.849 284.509 212.09 287.459 198.181 286.476C184.272 285.492 137.91 258.658 137.91 258.658C137.91 258.658 119.083 230.981 140.86 209.064Z" fill="#202F7C"/>
<path d="M124.985 252.898C124.985 252.898 186.943 285.352 194.108 286.476C201.273 287.459 228.669 286.476 228.669 286.476" stroke="#1B2048" stroke-width="0.8263" stroke-miterlimit="10"/>
<path d="M208.578 261.187C208.578 261.187 210.686 272.567 203.38 279.31" stroke="#1B2048" stroke-width="0.8263" stroke-miterlimit="10"/>
<path d="M213.214 258.096C213.214 258.096 219.396 267.93 216.305 275.095" stroke="#1B2048" stroke-width="0.8263" stroke-miterlimit="10"/>
<path d="M124.423 239.972C124.423 239.972 119.225 221.849 137.349 210.047" stroke="#1B2048" stroke-width="0.8263" stroke-miterlimit="10"/>
<path d="M57.9702 222.973C57.9702 222.973 54.3174 255.005 54.3174 269.897" stroke="#1B2048" stroke-width="0.8263" stroke-miterlimit="10"/>
<path d="M76.5146 201.758C76.5146 201.758 100.258 199.651 119.786 201.758" stroke="#1B2048" stroke-width="0.8263" stroke-miterlimit="10"/>
<path d="M231.76 409.688C231.76 409.688 243.14 406.035 247.214 388.473" stroke="#1B2048" stroke-width="0.8263" stroke-miterlimit="10"/>
<path d="M239.487 411.233C239.487 411.233 246.231 409.126 249.322 399.853" stroke="#1B2048" stroke-width="0.8263" stroke-miterlimit="10"/>
<path d="M198.323 431.464L181.183 516.603" stroke="#1B2048" stroke-width="0.8263" stroke-miterlimit="10"/>
<path d="M123.58 131.09C123.58 131.09 125.547 140.082 117.68 145.983L118.242 155.958C118.242 155.958 121.192 164.949 119.225 165.933C117.258 166.916 116.696 165.371 116.696 165.371C116.696 165.371 110.233 154.974 108.267 154.412C106.3 153.85 112.762 168.321 112.762 168.321C112.762 168.321 106.3 178.296 94.3577 179.701L96.8866 176.189C96.8866 176.189 91.4073 179.701 82.9778 179.139C74.5482 178.577 68.0855 165.792 68.0855 165.792C68.0855 165.792 69.6309 169.304 68.0855 170.709C66.5401 172.255 58.1105 159.329 57.689 142.892L55.1602 147.809C55.1602 147.809 55.7221 136.429 60.0774 123.504C64.5732 110.578 84.3827 101.165 95.3412 101.165C106.3 101.165 117.258 102.149 120.208 101.165C123.159 100.182 121.754 108.611 121.754 108.611C121.754 108.611 123.299 105.099 123.721 102.149C125.688 100.603 128.638 112.545 127.655 117.041C126.671 121.537 126.671 121.537 126.671 121.537C126.671 121.537 130.183 117.041 130.605 114.653C132.431 114.231 132.01 125.19 123.58 131.09Z" fill="#201360"/>
<path d="M116.274 155.817C116.274 155.817 114.307 149.214 108.828 152.726C103.349 156.239 111.076 171.833 115.712 170.569C120.349 169.164 117.539 158.346 116.274 155.817Z" fill="#FF634D"/>
<path d="M317.882 271.021L331.931 268.212L334.741 262.03" stroke="#E66657" stroke-width="1.2805" stroke-miterlimit="10"/>
<path d="M331.37 268.493C331.37 268.493 324.205 274.393 323.221 274.955C322.238 275.517 317.742 276.641 317.742 276.641" stroke="#E66657" stroke-width="1.2805" stroke-miterlimit="10"/>
<path d="M114.167 172.676C114.167 172.676 112.2 179.56 124.142 183.635" stroke="#E66657" stroke-width="1.2805" stroke-miterlimit="10"/>
<path d="M385.6 224.94H279.668L292.874 156.098H398.806L385.6 224.94Z" fill="#2E60BE"/>
<path d="M245.529 179.982C245.107 181.949 246.653 183.775 248.62 183.775H363.964C365.51 183.775 366.774 182.651 367.055 181.246L368.741 172.395H246.934L245.529 179.982Z" fill="#26C6F8"/>
<path d="M378.014 104.537H262.669C261.124 104.537 259.859 105.661 259.578 107.066L247.074 172.255H368.882L381.245 108.33C381.526 106.364 380.121 104.537 378.014 104.537Z" fill="#CAE5FF"/>
<path d="M299.197 183.775C300.742 179.561 301.585 176.61 301.585 176.61C301.585 176.61 305.098 158.487 289.503 163.123C289.503 163.123 284.164 167.197 281.635 175.627C280.792 178.296 279.949 181.106 278.966 183.775H299.197Z" fill="#387AB6"/>
<path d="M331.37 183.775C331.089 174.784 330.527 167.619 329.543 165.652C326.733 160.453 315.072 155.677 315.072 155.677L299.197 158.065C299.197 158.065 292.594 160.032 290.486 164.668C289.784 166.214 288.098 174.081 286.131 183.775H331.37Z" fill="#DCE4FF"/>
<path d="M301.866 144.999C301.866 144.999 300.883 152.164 298.775 157.363C298.775 157.363 298.213 161.437 306.643 159.61C315.073 157.925 313.949 153.71 313.949 153.71V136.851L301.866 144.999Z" fill="#FF8D68"/>
<path d="M289.925 127.438C289.925 127.438 290.066 143.313 294.561 151.041C297.652 154.272 308.33 149.214 312.685 142.33C317.181 135.446 317.04 125.19 313.528 119.43C310.016 113.669 298.355 115.496 294.983 117.463C291.751 119.43 289.785 124.909 289.925 127.438Z" fill="#FF8D68"/>
<path d="M311.42 136.429C311.42 136.429 314.37 131.793 316.478 134.603C318.445 137.413 311.561 143.032 310.999 140.784C310.437 138.677 311.42 136.429 311.42 136.429Z" fill="#FBA894"/>
<path d="M289.924 127.438C289.924 127.438 284.304 122.52 291.048 116.198C294.841 113.248 296.808 115.496 300.882 114.653C304.956 113.95 312.262 114.653 314.931 118.868C317.601 123.082 316.617 132.917 315.915 133.9C315.212 134.884 312.824 135.446 312.824 137.132C312.824 138.818 312.403 140.222 311.841 140.222C311.279 140.222 311.279 137.272 311.279 135.165C311.279 133.057 310.857 128.983 309.874 126.173C308.89 123.223 304.535 123.504 302.709 123.925C301.163 124.206 300.039 128.702 289.924 127.438Z" fill="#713336"/>
<path opacity="0.53" d="M310.857 132.214C310.857 132.214 310.998 132.214 311.138 132.074L310.857 132.214Z" fill="#505E83"/>
<path d="M311.279 132.074C311.279 132.355 312.262 141.627 308.609 144.156C304.816 146.685 304.676 143.454 301.585 143.032C298.634 142.611 296.105 142.751 294.841 144.718C293.717 146.685 293.858 147.528 292.734 146.966C292.453 147.669 294.139 151.462 296.667 152.445C299.196 153.429 305.238 150.338 307.907 147.95C310.576 145.561 312.262 144.016 312.684 142.049C313.105 139.941 312.965 136.008 313.527 133.338C313.948 131.09 311.981 131.652 311.279 132.074ZM297.37 149.073C293.717 148.231 294.139 145.421 297.932 144.297C297.932 144.297 301.866 142.47 303.271 145.28C303.833 146.966 301.023 149.776 297.37 149.073Z" fill="#713336"/>
<path d="M313.949 152.445C313.949 152.445 309.313 158.206 301.726 158.908C300.181 158.346 299.338 155.536 299.338 155.536L298.214 157.363C298.214 157.363 297.652 160.875 298.214 162.28C298.916 162.42 301.585 160.594 301.585 160.594C301.585 160.594 303.412 163.123 304.676 163.544C305.941 163.966 314.23 158.487 315.073 155.677C315.073 155.677 314.932 153.85 313.949 152.445Z" fill="white"/>
<path d="M332.494 183.775C332.073 174.924 331.511 168.181 331.089 166.776C329.123 162.28 322.098 156.66 315.073 155.677C315.073 155.677 312.404 167.9 309.875 183.775H332.494Z" fill="#387AB6"/>
<path d="M291.611 183.775C295.404 167.899 298.214 158.627 298.214 158.627C296.107 158.908 292.313 160.594 289.644 163.123C288.239 165.933 285.991 174.081 283.743 183.775H291.611Z" fill="#387AB6"/>
<path d="M331.088 183.775C331.369 175.346 330.807 167.478 329.543 165.652C325.047 161.858 320.27 162.139 317.882 166.354C316.617 168.742 314.931 176.891 313.526 183.775H331.088Z" fill="#387AB6"/>
<path d="M301.445 160.594C300.04 166.073 298.916 171.552 297.933 177.172" stroke="#87B8EB" stroke-width="0.3595" stroke-miterlimit="10"/>
<path d="M388.579 117.106C399.746 107.245 402.554 92.1789 394.85 83.4544C387.146 74.73 371.848 75.6511 360.681 85.5119C349.514 95.3727 346.706 110.439 354.41 119.163C362.114 127.888 377.412 126.967 388.579 117.106Z" fill="#6787FF"/>
<path d="M403.303 126.876C402.46 130.528 398.807 133.338 395.154 133.338C391.501 133.338 389.394 130.388 390.237 126.876C391.08 123.223 394.733 120.413 398.385 120.413C402.038 120.413 404.146 123.363 403.303 126.876Z" fill="#6787FF"/>
<path d="M368.46 113.388C367.758 113.388 367.055 113.107 366.634 112.545L360.452 104.397C359.609 103.273 360.031 101.446 361.435 100.182C362.84 99.058 364.667 99.058 365.65 100.182L370.287 106.364L386.724 93.1573C388.129 92.0333 389.956 92.0333 390.939 93.1573C391.782 94.2812 391.361 96.1076 389.956 97.3721L370.849 112.686C370.006 113.107 369.163 113.388 368.46 113.388Z" fill="white"/>
<path d="M199.446 61.5463H191.579C189.612 61.5463 188.488 60.0009 188.909 58.034L190.876 50.1664C191.298 48.1995 193.405 46.6541 195.372 46.6541H203.24C205.207 46.6541 206.331 48.1995 205.909 50.1664L203.942 58.034C203.38 60.0009 201.413 61.5463 199.446 61.5463Z" fill="#BFD9FF"/>
<path d="M193.685 84.4467H185.817C183.85 84.4467 182.726 82.9013 183.148 80.9344L185.115 73.0668C185.536 71.0999 187.643 69.5544 189.61 69.5544H197.478C199.445 69.5544 200.569 71.0999 200.147 73.0668L198.18 80.9344C197.618 82.9013 195.652 84.4467 193.685 84.4467Z" stroke="#A9A7E7" stroke-width="0.75" stroke-miterlimit="10"/>
<path d="M218.552 84.4467H210.684C208.717 84.4467 207.593 82.9013 208.015 80.9344L209.982 73.0668C210.403 71.0999 212.511 69.5544 214.478 69.5544H222.345C224.312 69.5544 225.436 71.0999 225.014 73.0668L223.048 80.9344C222.486 82.9013 220.519 84.4467 218.552 84.4467Z" fill="#26C6DA"/>
<path d="M243.278 84.4467H235.411C233.444 84.4467 232.32 82.9013 232.741 80.9344L234.708 73.0668C235.13 71.0999 237.237 69.5544 239.204 69.5544H247.072C249.039 69.5544 250.163 71.0999 249.741 73.0668L247.774 80.9344C247.212 82.9013 245.245 84.4467 243.278 84.4467Z" fill="white"/>
<path d="M187.926 107.909H180.058C178.091 107.909 176.967 106.364 177.389 104.397L179.356 96.529C179.777 94.5621 181.885 93.0167 183.852 93.0167H191.719C193.686 93.0167 194.81 94.5621 194.389 96.529L192.422 104.397C191.86 106.223 189.893 107.909 187.926 107.909Z" fill="#26C6DA"/>
<path d="M181.604 132.776H173.736C171.769 132.776 170.645 131.231 171.067 129.264L173.033 121.396C173.455 119.429 175.562 117.884 177.529 117.884H185.397C187.364 117.884 188.488 119.429 188.066 121.396L186.099 129.264C185.537 131.231 183.57 132.776 181.604 132.776Z" fill="white"/>
<path d="M212.651 107.909H204.784C202.817 107.909 201.693 106.364 202.114 104.397L204.081 96.529C204.503 94.5621 206.61 93.0167 208.577 93.0167H216.445C218.412 93.0167 219.536 94.5621 219.114 96.529L217.147 104.397C216.585 106.223 214.618 107.909 212.651 107.909Z" fill="#EDF4FF"/>
<path d="M201.835 151.462H193.967C192.001 151.462 190.877 149.916 191.298 147.95L193.265 140.082C193.686 138.115 195.794 136.57 197.761 136.57H205.628C207.595 136.57 208.719 138.115 208.298 140.082L206.331 147.95C205.769 149.916 203.802 151.462 201.835 151.462Z" stroke="#A9A7E7" stroke-width="0.75" stroke-miterlimit="10"/>
<path d="M436.459 121.115H433.649C432.947 121.115 432.525 120.553 432.666 119.851L433.368 117.041C433.509 116.339 434.211 115.777 435.054 115.777H437.864C438.566 115.777 438.988 116.339 438.847 117.041L438.145 119.851C437.864 120.553 437.161 121.115 436.459 121.115Z" fill="#CAE5FF"/>
<path d="M434.351 129.545H431.542C430.839 129.545 430.418 128.983 430.558 128.281L431.261 125.471C431.401 124.768 432.104 124.206 432.947 124.206H435.756C436.459 124.206 436.88 124.768 436.74 125.471L436.037 128.281C435.756 128.983 435.054 129.545 434.351 129.545Z" fill="#CAE5FF"/>
<path d="M443.484 129.545H440.674C439.972 129.545 439.55 128.983 439.691 128.281L440.393 125.471C440.534 124.768 441.236 124.206 442.079 124.206H444.889C445.592 124.206 446.013 124.768 445.873 125.471L445.17 128.281C444.889 128.983 444.187 129.545 443.484 129.545Z" fill="#CAE5FF"/>
<path d="M452.615 129.545H449.805C449.103 129.545 448.681 128.983 448.822 128.281L449.524 125.471C449.665 124.768 450.367 124.206 451.21 124.206H454.02C454.723 124.206 455.144 124.768 455.004 125.471L454.301 128.281C454.02 128.983 453.318 129.545 452.615 129.545Z" fill="#CAE5FF"/>
<path d="M432.243 138.115H429.433C428.731 138.115 428.309 137.553 428.45 136.851L429.152 134.041C429.293 133.338 429.995 132.776 430.838 132.776H433.648C434.35 132.776 434.772 133.338 434.631 134.041L433.929 136.851C433.648 137.553 432.946 138.115 432.243 138.115Z" fill="#CAE5FF"/>
<path d="M429.854 147.247H427.045C426.342 147.247 425.921 146.685 426.061 145.983L426.764 143.173C426.904 142.47 427.607 141.908 428.449 141.908H431.259C431.962 141.908 432.383 142.47 432.243 143.173L431.54 145.983C431.4 146.685 430.697 147.247 429.854 147.247Z" fill="#CAE5FF"/>
<path d="M441.375 138.115H438.565C437.863 138.115 437.441 137.553 437.582 136.851L438.284 134.041C438.425 133.338 439.127 132.776 439.97 132.776H442.78C443.482 132.776 443.904 133.338 443.763 134.041L443.061 136.851C442.78 137.553 442.077 138.115 441.375 138.115Z" fill="#CAE5FF"/>
<path d="M437.301 154.131H434.491C433.788 154.131 433.367 153.569 433.507 152.867L434.21 150.057C434.35 149.354 435.053 148.792 435.896 148.792H438.706C439.408 148.792 439.83 149.354 439.689 150.057L438.987 152.867C438.706 153.569 438.003 154.131 437.301 154.131Z" fill="#CAE5FF"/>
<path opacity="0.9" d="M435.475 229.576H341.344C340.361 229.576 339.658 228.592 339.939 227.749L348.79 194.031C348.931 193.329 349.633 192.907 350.195 192.907H444.326C445.309 192.907 446.012 193.891 445.731 194.734L436.88 228.452C436.88 229.154 436.177 229.576 435.475 229.576Z" fill="#BFD9FF"/>
<path d="M354.271 200.072H387.005" stroke="#A9C2FF" stroke-width="1.076" stroke-miterlimit="10" stroke-linecap="round" stroke-linejoin="round"/>
<path d="M351.742 215.246H384.477" stroke="#A9C2FF" stroke-width="1.076" stroke-miterlimit="10" stroke-linecap="round" stroke-linejoin="round"/>
<path d="M365.511 209.485H398.246" stroke="#A9C2FF" stroke-width="1.076" stroke-miterlimit="10" stroke-linecap="round" stroke-linejoin="round"/>
<path d="M353.429 205.13H363.263" stroke="#A9C2FF" stroke-width="1.076" stroke-miterlimit="10" stroke-linecap="round" stroke-linejoin="round"/>
<path d="M352.163 209.485H361.998" stroke="#A9C2FF" stroke-width="1.076" stroke-miterlimit="10" stroke-linecap="round" stroke-linejoin="round"/>
<path d="M392.203 200.072H404.005" stroke="#A9C2FF" stroke-width="1.076" stroke-miterlimit="10" stroke-linecap="round" stroke-linejoin="round"/>
<path d="M397.965 222.27H380.544C380.403 222.27 380.403 222.13 380.403 222.13L381.246 219.179C381.246 219.179 381.246 219.039 381.387 219.039H398.808C398.948 219.039 398.948 219.179 398.948 219.179L397.965 222.27ZM397.965 222.27C398.105 222.27 398.105 222.27 397.965 222.27Z" stroke="#84AEE5" stroke-width="0.3587" stroke-miterlimit="10"/>
<path d="M376.329 222.27H358.908C358.768 222.27 358.768 222.13 358.768 222.13L359.611 219.179C359.611 219.179 359.611 219.039 359.751 219.039H377.172C377.313 219.039 377.313 219.179 377.313 219.179L376.329 222.27ZM376.329 222.27C376.47 222.27 376.329 222.27 376.329 222.27Z" stroke="#84AEE5" stroke-width="0.3587" stroke-miterlimit="10"/>
<path d="M428.591 217.915C427.748 216.791 424.096 215.808 423.112 214.684C422.55 214.122 422.55 212.998 422.691 212.014C423.112 211.733 423.393 211.593 423.534 211.312C423.815 210.89 424.236 210.188 424.517 209.626C424.658 209.766 424.798 209.766 424.939 209.766C425.36 209.766 427.186 207.237 426.765 206.676C426.484 206.395 426.063 206.676 425.782 206.957C426.203 205.833 426.624 204.99 426.624 204.99C426.624 204.849 426.765 204.709 426.765 204.568C427.467 201.618 425.782 199.37 422.831 199.37C419.881 199.37 417.071 201.758 416.368 204.568C416.368 204.709 416.368 204.849 416.228 204.99C416.228 204.99 416.088 205.833 416.088 206.957C415.947 206.676 415.666 206.395 415.245 206.676C414.542 207.237 415.104 209.766 415.526 209.766C415.666 209.766 415.807 209.626 416.088 209.626C416.088 210.328 416.087 210.89 416.228 211.312C416.368 211.593 416.509 211.874 416.93 212.155C416.509 213.138 416.087 214.122 415.245 214.684C413.699 215.808 409.625 216.791 408.079 217.915C406.674 219.039 405.551 222.13 405.27 222.692H429.153C429.013 222.13 429.434 219.039 428.591 217.915Z" fill="#387AB6"/>
<path d="M307.908 217.634H230.636C223.893 217.634 219.678 212.155 221.364 205.411C223.05 198.668 229.934 193.188 236.678 193.188H313.949C320.692 193.188 324.907 198.668 323.221 205.411C321.535 212.155 314.651 217.634 307.908 217.634Z" fill="white"/>
<path d="M238.786 208.502L235.414 210.048C235.133 210.188 234.852 209.907 234.993 209.626L236.398 206.395C236.398 206.254 236.398 206.114 236.398 206.114L234.571 203.866C234.431 203.585 234.571 203.304 234.993 203.163L238.365 202.742C238.505 202.742 238.646 202.602 238.646 202.602L240.893 199.651C241.034 199.37 241.455 199.37 241.596 199.651L242.298 202.602C242.298 202.742 242.439 202.742 242.579 202.742L245.67 203.163C245.951 203.163 245.951 203.585 245.67 203.866L242.72 206.114C242.579 206.254 242.579 206.254 242.579 206.395L242.298 209.626C242.298 209.907 241.877 210.188 241.596 210.048L239.067 208.502C239.067 208.502 238.927 208.502 238.786 208.502Z" fill="#FFA402"/>
<path d="M255.224 208.502L251.852 210.048C251.571 210.188 251.29 209.907 251.43 209.626L252.835 206.395C252.835 206.254 252.835 206.114 252.835 206.114L251.009 203.866C250.868 203.585 251.009 203.304 251.43 203.163L254.802 202.742C254.943 202.742 255.083 202.602 255.083 202.602L257.331 199.651C257.471 199.37 257.893 199.37 258.033 199.651L258.736 202.602C258.736 202.742 258.876 202.742 259.017 202.742L262.108 203.163C262.389 203.163 262.389 203.585 262.108 203.866L259.157 206.114C259.017 206.254 259.017 206.254 259.017 206.395L258.736 209.626C258.736 209.907 258.314 210.188 258.033 210.048L255.505 208.502C255.364 208.502 255.224 208.502 255.224 208.502Z" fill="#FFA402"/>
<path d="M271.519 208.502L268.148 210.048C267.867 210.188 267.586 209.907 267.726 209.626L269.131 206.395C269.131 206.254 269.131 206.114 269.131 206.114L267.305 203.866C267.164 203.585 267.305 203.304 267.726 203.164L271.098 202.742C271.238 202.742 271.379 202.602 271.379 202.602L273.627 199.651C273.767 199.37 274.189 199.37 274.329 199.651L275.032 202.602C275.032 202.742 275.172 202.742 275.313 202.742L278.404 203.164C278.685 203.164 278.685 203.585 278.404 203.866L275.453 206.114C275.313 206.254 275.313 206.254 275.313 206.395L275.032 209.626C275.032 209.907 274.61 210.188 274.329 210.048L271.8 208.502C271.66 208.502 271.519 208.502 271.519 208.502Z" fill="#FFA402"/>
<path d="M287.817 208.502L284.445 210.048C284.164 210.188 283.883 209.907 284.024 209.626L285.429 206.395C285.429 206.254 285.429 206.114 285.429 206.114L283.602 203.866C283.462 203.585 283.602 203.304 284.024 203.164L287.396 202.742C287.536 202.742 287.677 202.602 287.677 202.602L289.925 199.651C290.065 199.37 290.487 199.37 290.627 199.651L291.33 202.602C291.33 202.742 291.47 202.742 291.611 202.742L294.701 203.164C294.982 203.164 294.982 203.585 294.701 203.866L291.751 206.114C291.611 206.254 291.611 206.254 291.611 206.395L291.33 209.626C291.33 209.907 290.908 210.188 290.627 210.048L288.098 208.502C287.958 208.502 287.958 208.502 287.817 208.502Z" fill="#FFA402"/>
<path d="M304.115 208.502L300.743 210.048C300.462 210.188 300.181 209.907 300.322 209.626L301.727 206.395C301.727 206.254 301.727 206.114 301.727 206.114L299.9 203.866C299.76 203.585 299.9 203.304 300.322 203.163L303.694 202.742C303.834 202.742 303.975 202.602 303.975 202.602L306.223 199.651C306.363 199.37 306.784 199.37 306.925 199.651L307.627 202.602C307.627 202.742 307.768 202.742 307.908 202.742L310.999 203.163C311.28 203.163 311.28 203.585 310.999 203.866L308.049 206.114C307.908 206.254 307.908 206.254 307.908 206.395L307.627 209.626C307.627 209.907 307.206 210.188 306.925 210.048L304.396 208.502C304.396 208.502 304.256 208.502 304.115 208.502Z" fill="#C2D4D9"/>
<path d="M117.96 170.147C121.452 170.147 124.282 166.185 124.282 161.296C124.282 156.408 121.452 152.445 117.96 152.445C114.468 152.445 111.638 156.408 111.638 161.296C111.638 166.185 114.468 170.147 117.96 170.147Z" fill="#202F7C"/>
<path d="M118.944 162.14C118.944 162.14 136.787 181.809 136.787 185.04C136.787 188.131 131.027 187.709 131.027 187.709" stroke="#202F7C" stroke-width="1.1018" stroke-miterlimit="10"/>
<path d="M132.289 187.569C132.289 188.833 131.306 189.957 129.901 189.957C128.637 189.957 127.513 188.974 127.513 187.569C127.513 186.304 128.496 185.18 129.901 185.18C131.306 185.321 132.289 186.304 132.289 187.569Z" fill="#202F7C"/>
<path d="M87.334 418.68C93.6562 429.638 113.466 437.506 136.928 437.506C160.39 437.506 180.2 429.498 186.522 418.68H87.334Z" fill="#4F57A0"/>
<path d="M221.365 362.623L209.423 417.696H202.117L208.72 364.028L221.365 362.623Z" fill="#A9A7E7"/>
<path d="M243.282 367.259H136.507V354.053H232.604C238.505 354.053 243.141 358.829 243.141 364.59V367.259H243.282Z" fill="#7A82CC"/>
<path d="M49.2597 411.655L23.409 287.459C22.4256 282.542 26.2189 277.906 31.1361 277.906H116.556C121.192 277.906 125.266 281.277 126.25 285.773L152.382 411.655" fill="#A9A7E7"/>
<path d="M224.736 425.283H62.4661C56.9869 425.283 52.2101 421.63 50.6647 416.432L49.2598 411.655H224.736V425.283Z" fill="#A9A7E7"/>
<path d="M144.935 431.605H132.01V546.809H144.935V431.605Z" fill="#E2E7FF"/>
<path d="M144.935 452.96L132.01 463.356V431.605H144.935V452.96Z" fill="#4F57A0"/>
<path d="M144.515 529.529H139.738H138.614H133.837L85.5078 548.776H192.844L144.515 529.529Z" fill="#E2E7FF"/>
<path d="M34.7891 286.476H111.639" stroke="#4F57A0" stroke-miterlimit="10"/>
<path d="M119.506 295.327L132.712 361.359" stroke="#4F57A0" stroke-miterlimit="10"/>
<path d="M134.961 373.019L137.771 392.267" stroke="#4F57A0" stroke-miterlimit="10"/>
<path d="M493.077 175.486H431.26C428.029 175.486 425.64 172.676 426.202 169.445L426.624 166.495C427.045 163.966 429.153 162.139 431.682 162.139H493.498C496.73 162.139 499.118 164.949 498.556 168.18L498.135 171.131C497.713 173.519 495.606 175.486 493.077 175.486Z" fill="#CAE5FF"/>
<path d="M433.788 168.883H487.175" stroke="white" stroke-width="2" stroke-miterlimit="10"/>
<path d="M267.726 98.6365H250.867C242.859 98.6365 234.991 105.099 233.305 113.107C231.619 121.115 236.677 127.578 244.685 127.578H248.338C252.412 137.272 262.106 136.008 262.106 136.008C260.28 132.355 259.859 129.404 259.859 127.578H261.544C269.553 127.578 277.42 121.115 279.106 113.107C280.932 105.099 275.734 98.6365 267.726 98.6365Z" fill="#FF634D"/>
<path d="M243.703 110.297H259.719" stroke="white" stroke-width="2" stroke-miterlimit="10"/>
<path d="M242.438 116.62H268.288" stroke="white" stroke-width="2" stroke-miterlimit="10"/>
</svg>
